<svg id="Ebene_1" data-name="Ebene 1" xmlns="http://www.w3.org/2000/svg" viewBox="0 0 99.92 99.92"><defs><style>.cls-1{fill:#1a1a1a;}.cls-2{fill:#fff;}.cls-3{fill:#3e3d40;}</style></defs><title>kk_dreieck</title><path class="cls-1" d="M5.25,55.22a50,50,0,1,1,50,50,50,50,0,0,1-50-50" transform="translate(-5.25 -5.26)"/><path class="cls-2" d="M39,26L84.61,55.22a1.18,1.18,0,0,1,0,1.84L39,86.33c-0.53.34-1.16-.16-1.16-0.92V26.89c0-.77.63-1.26,1.16-0.92" transform="translate(-5.25 -5.26)"/><path class="cls-3" d="M60.75,70.86L39.23,57.07a1.18,1.18,0,0,1,0-1.84l21.53-13.8c0.53-.34,1.16.16,1.16,0.92V69.94c0,0.77-.63,1.26-1.16.92" transform="translate(-5.25 -5.26)"/><path class="cls-3" d="M72.82,63.13l-9.46-6.06a1.18,1.18,0,0,1,0-1.84l9.46-6.06c0.53-.34,1.16.16,1.16,0.92V62.21c0,0.77-.63,1.26-1.16.92" transform="translate(-5.25 -5.26)"/></svg>